<mxfile host="app.diagrams.net" agent="Mozilla/5.0 (Macintosh; Intel Mac OS X 10_15_7) AppleWebKit/537.36 (KHTML, like Gecko) Chrome/134.0.0.0 Safari/537.36" version="26.1.0">
  <diagram name="Sayfa -1" id="AMTWgzCIG8hjwLylAB_x">
    <mxGraphModel dx="1468" dy="2021" grid="1" gridSize="10" guides="1" tooltips="1" connect="1" arrows="1" fold="1" page="1" pageScale="1" pageWidth="827" pageHeight="1169" math="0" shadow="0">
      <root>
        <mxCell id="0" />
        <mxCell id="1" parent="0" />
        <mxCell id="BV-zgCE8RuOQ6b1wKDkb-79" value="" style="rounded=1;strokeColor=#000000;fontSize=16;fontStyle=1;fillColor=#FFFFFF" vertex="1" parent="1">
          <mxGeometry x="4" y="-35" width="820" height="620" as="geometry" />
        </mxCell>
        <mxCell id="BV-zgCE8RuOQ6b1wKDkb-81" value="Flask API (iss_tracker.py)" style="rounded=1;strokeColor=#000000;fontSize=14;fontStyle=1;fillColor=#FFFFFF" vertex="1" parent="BV-zgCE8RuOQ6b1wKDkb-79">
          <mxGeometry x="90" y="44.29" width="365.56" height="245.71" as="geometry" />
        </mxCell>
        <mxCell id="BV-zgCE8RuOQ6b1wKDkb-82" value="/epochs" style="ellipse;strokeColor=#000000;fontSize=12;fillColor=#EEEEEE" vertex="1" parent="BV-zgCE8RuOQ6b1wKDkb-81">
          <mxGeometry x="30.46333333333334" y="49.142" width="121.85333333333335" height="49.142" as="geometry" />
        </mxCell>
        <mxCell id="BV-zgCE8RuOQ6b1wKDkb-83" value="/epochs/&lt;epoch&gt;" style="ellipse;strokeColor=#000000;fontSize=12;fillColor=#EEEEEE" vertex="1" parent="BV-zgCE8RuOQ6b1wKDkb-81">
          <mxGeometry x="207.1506666666667" y="49.142" width="121.85333333333335" height="49.142" as="geometry" />
        </mxCell>
        <mxCell id="BV-zgCE8RuOQ6b1wKDkb-84" value="/epochs/&lt;epoch&gt;/speed" style="ellipse;strokeColor=#000000;fontSize=12;fillColor=#EEEEEE" vertex="1" parent="BV-zgCE8RuOQ6b1wKDkb-81">
          <mxGeometry y="147.42600000000002" width="182.78" height="49.142" as="geometry" />
        </mxCell>
        <mxCell id="BV-zgCE8RuOQ6b1wKDkb-85" value="/epochs/&lt;epoch&gt;/location" style="ellipse;strokeColor=#000000;fontSize=12;fillColor=#EEEEEE" vertex="1" parent="BV-zgCE8RuOQ6b1wKDkb-81">
          <mxGeometry x="194.96533333333335" y="147.42600000000002" width="170.59466666666665" height="49.142" as="geometry" />
        </mxCell>
        <mxCell id="BV-zgCE8RuOQ6b1wKDkb-86" value="/now" style="ellipse;strokeColor=#000000;fontSize=12;fillColor=#EEEEEE" vertex="1" parent="BV-zgCE8RuOQ6b1wKDkb-81">
          <mxGeometry x="121.85333333333335" y="196.568" width="121.85333333333335" height="49.142" as="geometry" />
        </mxCell>
        <mxCell id="BV-zgCE8RuOQ6b1wKDkb-87" value="" style="rounded=1;strokeColor=#000000;fontSize=14;fontStyle=1;fillColor=#FFFFFF" vertex="1" parent="BV-zgCE8RuOQ6b1wKDkb-79">
          <mxGeometry x="501.1111111111111" y="44.285714285714285" width="227.77777777777777" height="177.14285714285714" as="geometry" />
        </mxCell>
        <mxCell id="BV-zgCE8RuOQ6b1wKDkb-88" value="Redis Container" style="ellipse;strokeColor=#000000;fontSize=14;" vertex="1" parent="BV-zgCE8RuOQ6b1wKDkb-87">
          <mxGeometry x="59.22222222222222" y="57.57142857142857" width="109.33333333333333" height="62" as="geometry" />
        </mxCell>
        <mxCell id="BV-zgCE8RuOQ6b1wKDkb-91" value="Docker Compose (Deployment)" style="rounded=1;strokeColor=#000000;fontSize=14;fontStyle=1;fillColor=#FFFFFF" vertex="1" parent="BV-zgCE8RuOQ6b1wKDkb-79">
          <mxGeometry x="386.00444444444446" y="415.00428571428574" width="273.3333333333333" height="132.85714285714286" as="geometry" />
        </mxCell>
        <mxCell id="BV-zgCE8RuOQ6b1wKDkb-94" style="edgeStyle=orthogonalEdgeStyle;strokeColor=#000000;entryX=0.5;entryY=1;entryDx=0;entryDy=0;" edge="1" parent="BV-zgCE8RuOQ6b1wKDkb-79" target="BV-zgCE8RuOQ6b1wKDkb-89">
          <mxGeometry relative="1" as="geometry">
            <mxPoint x="364" y="53" as="sourcePoint" />
            <Array as="points">
              <mxPoint x="360" y="53" />
            </Array>
          </mxGeometry>
        </mxCell>
        <mxCell id="BV-zgCE8RuOQ6b1wKDkb-95" style="edgeStyle=orthogonalEdgeStyle;strokeColor=#000000;" edge="1" parent="BV-zgCE8RuOQ6b1wKDkb-79" source="BV-zgCE8RuOQ6b1wKDkb-81" target="BV-zgCE8RuOQ6b1wKDkb-87">
          <mxGeometry relative="1" as="geometry" />
        </mxCell>
        <mxCell id="BV-zgCE8RuOQ6b1wKDkb-96" style="edgeStyle=orthogonalEdgeStyle;strokeColor=#000000;" edge="1" parent="BV-zgCE8RuOQ6b1wKDkb-79" source="BV-zgCE8RuOQ6b1wKDkb-87" target="BV-zgCE8RuOQ6b1wKDkb-91">
          <mxGeometry relative="1" as="geometry" />
        </mxCell>
        <mxCell id="BV-zgCE8RuOQ6b1wKDkb-97" style="edgeStyle=orthogonalEdgeStyle;strokeColor=#000000;" edge="1" parent="BV-zgCE8RuOQ6b1wKDkb-79" source="BV-zgCE8RuOQ6b1wKDkb-91" target="BV-zgCE8RuOQ6b1wKDkb-81">
          <mxGeometry relative="1" as="geometry" />
        </mxCell>
        <mxCell id="BV-zgCE8RuOQ6b1wKDkb-89" value="NASA ISS Data" style="rounded=1;strokeColor=#000000;fontSize=14;fontStyle=1;fillColor=#FFFFFF" vertex="1" parent="1">
          <mxGeometry x="454" y="-140" width="370" height="60" as="geometry" />
        </mxCell>
        <mxCell id="BV-zgCE8RuOQ6b1wKDkb-80" value="User" style="ellipse;strokeColor=#000000;fontSize=14;" vertex="1" parent="1">
          <mxGeometry x="4.002222222222221" y="-140.00428571428571" width="136.66666666666666" height="62" as="geometry" />
        </mxCell>
        <mxCell id="BV-zgCE8RuOQ6b1wKDkb-93" style="edgeStyle=orthogonalEdgeStyle;strokeColor=#000000;" edge="1" parent="1" source="BV-zgCE8RuOQ6b1wKDkb-80" target="BV-zgCE8RuOQ6b1wKDkb-81">
          <mxGeometry relative="1" as="geometry" />
        </mxCell>
      </root>
    </mxGraphModel>
  </diagram>
</mxfile>
